<svg id="Layer_1" data-name="Layer 1" xmlns="http://www.w3.org/2000/svg" viewBox="0 0 211.32 66.11"><defs><style>.cls-1,.cls-4{fill:#fff;}.cls-1,.cls-2,.cls-3,.cls-5,.cls-6,.cls-7{stroke:#fff;}.cls-2{fill:none;stroke-width:4.25px;}.cls-2,.cls-3,.cls-5,.cls-6,.cls-7{stroke-miterlimit:10;}.cls-3,.cls-6{fill:#676767;}.cls-3{stroke-width:0.75px;}.cls-5,.cls-7{fill:#b4b4b4;}.cls-5{stroke-width:4px;}.cls-6{stroke-width:3px;}</style></defs><path class="cls-1" d="M211.27,388.61l-7.62.07a1.85,1.85,0,0,1,0-3.69l7.62.08V367.93a2,2,0,0,1,4,0l-.07,17.14,7.07-.08a1.85,1.85,0,0,1,0,3.69l-7.07-.07-.08,22.21c2.77-1.15,5.3-2.3,7.46-3.46a1.39,1.39,0,0,1,.76-.15,1.85,1.85,0,0,1,1.7,1.85,2,2,0,0,1-1.16,1.69c-6.92,3.53-19.52,8.53-21.14,8.53a2,2,0,0,1-2-2.08,1.93,1.93,0,0,1,1.39-1.84c3-.85,6.15-1.92,9.22-3.08ZM265,404.29A190.57,190.57,0,0,1,246.09,388a4.17,4.17,0,0,0-2.69-1.46,3.21,3.21,0,0,0-2.54,1.62,116,116,0,0,1-17.14,17,2.31,2.31,0,0,1-1.46.53,2.12,2.12,0,0,1-2.08-2.07,1.65,1.65,0,0,1,.85-1.46,79,79,0,0,0,17.3-16.53,6.19,6.19,0,0,1,4.84-2.69,7.72,7.72,0,0,1,5.38,2.61,122.32,122.32,0,0,0,19.14,15.07,2.08,2.08,0,0,1,1.08,1.84,2.32,2.32,0,0,1-2.23,2.39A2.71,2.71,0,0,1,265,404.29Zm-11.92-29v5.76a1.79,1.79,0,0,1-2,1.77,1.76,1.76,0,0,1-1.93-1.69v-5.92H237.48v5.84a1.8,1.8,0,0,1-2,1.77,1.76,1.76,0,0,1-1.92-1.69v-5.92l-10.3.08a1.81,1.81,0,1,1,0-3.61l10.3.07v-6.61a1.85,1.85,0,0,1,2-1.77,1.82,1.82,0,0,1,1.92,1.77v6.61h11.68v-6.61a1.85,1.85,0,0,1,2-1.77,1.82,1.82,0,0,1,1.92,1.77v6.61l11.69-.07a1.74,1.74,0,0,1,1.77,1.76,1.76,1.76,0,0,1-1.77,1.85ZM234,400.91a1.61,1.61,0,0,1-1.69-1.69,1.63,1.63,0,0,1,1.69-1.77h20a1.61,1.61,0,0,1,1.69,1.69,1.63,1.63,0,0,1-1.69,1.77Z" transform="translate(-200.23 -362.89)"/><path class="cls-1" d="M350.48,418.28c-.15-5.69-.23-12.3-.23-19.06,0-8.69.08-17.61.23-25.37.08-4.31,3.77-7.77,9.3-7.84,6.54-.16,13.53-.16,20.6-.16s14.38,0,21.53.16c4.84.07,8.84,3.38,8.92,8.45.15,7.69.23,16.3.23,24.76,0,6.61-.08,13.06-.23,18.83a9,9,0,0,1-9.08,9c-6.38.24-13.6.31-20.75.31s-14.22-.07-20.6-.31S350.63,423.43,350.48,418.28ZM407,397.52c0-7.61-.08-15.29-.23-21.67-.08-4.31-2.31-6.38-6.61-6.46-5.38-.08-11.61-.15-17.83-.15-7.62,0-15.15.07-21.07.15-4.76.08-6.84,2.46-6.92,6.46-.15,6.68-.23,14.53-.23,22.21,0,6.84.08,13.53.23,19.07.16,4.46,2.39,6.3,7.69,6.46,5.46.15,11.76.23,18.22.23s13.3-.08,19.6-.23c4.77-.08,6.77-2.62,6.92-6.69C406.9,411.13,407,404.37,407,397.52Zm-15.53-3.38a30.28,30.28,0,0,0,12.69,8.15,1.69,1.69,0,0,1,1.23,1.62,2,2,0,0,1-1.92,2c-2.08,0-10.38-4.3-16.22-11.76H373.54c-6.46,8.77-14.68,13.07-16,13.07a1.87,1.87,0,0,1-1.84-1.84,1.59,1.59,0,0,1,1-1.46,36.59,36.59,0,0,0,12.6-9.77l-10,.08a1.51,1.51,0,0,1-1.61-1.54,1.52,1.52,0,0,1,1.61-1.61l12.22.07a40.17,40.17,0,0,0,3.39-6.15l-6.31.08a1.54,1.54,0,1,1,0-3.07h7.54a45.19,45.19,0,0,0,2.3-8.77,1.58,1.58,0,0,1,1.69-1.3,1.66,1.66,0,0,1,1.85,1.46c0,2-2.08,8.22-2.23,8.61h12.3a1.54,1.54,0,0,1,0,3.07l-6.92-.08a42.52,42.52,0,0,0,3.77,6.15l12.68-.07a1.5,1.5,0,0,1,1.54,1.54,1.51,1.51,0,0,1-1.54,1.61Zm-30.36-8.22a1.72,1.72,0,0,1-1.77-1.69,1.8,1.8,0,0,1,1-1.54,29.66,29.66,0,0,0,9.76-8.69,1.62,1.62,0,0,1,1.31-.77,1.91,1.91,0,0,1,1.77,1.77C373.16,377.08,363.93,385.92,361.09,385.92Zm24,5.22a42.46,42.46,0,0,1-3.38-6.15h-3.07a66.58,66.58,0,0,1-3.08,6.15Zm11.3-7.14a33.77,33.77,0,0,0-9.38-7.85,1.36,1.36,0,0,1-.84-1.3,1.64,1.64,0,0,1,1.69-1.62c1.38,0,12,7.08,12,9.61a2,2,0,0,1-1.92,2A1.88,1.88,0,0,1,396.37,384Z" transform="translate(-200.23 -362.89)"/><rect class="cls-2" x="83.52" y="6.75" width="52.17" height="20" rx="7.52"/><rect class="cls-3" x="98.75" y="9.25" width="4.37" height="15" rx="1.67"/><rect class="cls-3" x="115.75" y="9.25" width="4.37" height="15" rx="1.67"/><path class="cls-4" d="M287.73,407.89a5.06,5.06,0,0,0,2.56-.16,25.47,25.47,0,0,0,6.17-2.81c1.77-1,3.49-2.13,5.17-3.28s3-2.27,4.65-3.19a8,8,0,0,1,8.5.59,7.07,7.07,0,0,1,3.18,6.44,8.24,8.24,0,0,1-1.41,3.45c-.25.39-.52.77-.79,1.15l-.22.3s.24-.3.07-.1-.34.43-.52.63a18.15,18.15,0,0,1-1.87,1.85c-.07.05-.56.44-.31.25s-.23.16-.32.23c-.38.27-.78.53-1.18.77a26.23,26.23,0,0,1-2.52,1.32l-.65.29a2.25,2.25,0,0,1-.32.13l-1.68.66c-7.45,2.82-15.07,5.14-22.51,8a2.4,2.4,0,0,0-1.63,2.86,2.35,2.35,0,0,0,2.86,1.63c7.14-2.74,14.43-5,21.61-7.66,4.15-1.51,8.32-3.28,11.39-6.56a18.78,18.78,0,0,0,4.15-6.52,11.09,11.09,0,0,0-1.56-9.82,13.33,13.33,0,0,0-9.4-5.41c-4.31-.51-7.58,1.63-10.92,4a70,70,0,0,1-6.11,3.95c-.76.44-1.52.85-2.3,1.24-.31.16-.62.31-.94.45-.61.28,0,0-.42.18s-.82.31-1.24.43c-.19.05-1.07.22-.55.15s0,0-.16,0c-.38-.07.66.12.45.06-2.89-.8-4.12,3.68-1.23,4.49Z" transform="translate(-200.23 -362.89)"/><circle class="cls-5" cx="110.11" cy="41.75" r="10"/><circle class="cls-5" cx="43.11" cy="52.75" r="10"/><path class="cls-6" d="M394.46,413c-.07-.17-.13-.35-.2-.52a13.46,13.46,0,0,1-14.76,5.74,10.65,10.65,0,0,1-7.58-13,8.38,8.38,0,0,1,10.22-6,6.56,6.56,0,0,1,4.67,8,5.1,5.1,0,0,1-6.23,3.63,3.94,3.94,0,0,1-2.8-4.8,3.14,3.14,0,0,1,.28-.68h-.41c-.39,0-.77,0-1.15,0,0,.11-.08.22-.11.33a5.37,5.37,0,0,0,3.83,6.57,6.55,6.55,0,0,0,8-4.66,8,8,0,0,0-5.7-9.77,9.83,9.83,0,0,0-12,7,12.11,12.11,0,0,0,8.61,14.76,15.2,15.2,0,0,0,3.83.5,14.8,14.8,0,0,0,7.49-2,15,15,0,0,0,4.36-3.85C394.69,413.85,394.57,413.45,394.46,413Z" transform="translate(-200.23 -362.89)"/><ellipse class="cls-7" cx="180.11" cy="42.25" rx="5.5" ry="5"/></svg>